# xmcd
#
# Track frame offsets:
#	150
#	11849
#	25405
#	39105
#	53318
#	67278
#	80394
#	94316
#	106034
#	117664
#	131081
#	143432
#	155593
#	167622
#	178697
#	191791
#
# Disc length: 2724 seconds
#
# Revision: 0
# Processed by: cddbd v1.5.2PL0 Copyright (c) Steve Scherf et al.
# Submitted via: audiograbber 1.83.01
#
DISCID=d40aa210
DTITLE=RAY CHARLES - ROLL WITH MY BABY
DYEAR=1949
DGENRE=Oldies
TTITLE0=RAY CHARLES - CAN'T YOU SEE DARLING
TTITLE1=RAY CHARLES - THIS LOVE OF MINE
TTITLE2=RAY CHARLES - LATE IN THE EVENING BLUES
TTITLE3=RAY CHARLES - SOMEDAY
TTITLE4=RAY CHARLES - SOMEDAY (ALTERNATE TAKE)
TTITLE5=RAY CHARLES - BABY WON'T YOU PLEASE COME HOME
TTITLE6=RAY CHARLES - KISS ME BABY
TTITLE7=RAY CHARLES - THE SUN'S GONNA SHINE AGAIN
TTITLE8=RAY CHARLES - ROLL WITH MY BABY
TTITLE9=RAY CHARLES - THE MIDNIGHT HOUR
TTITLE10=RAY CHARLES - JUMPIN' IN THE MORNING
TTITLE11=RAY CHARLES - IT SOULD HAVE BE ME
TTITLE12=RAY CHARLES - I LOVE YOU, I LOVE YOU
TTITLE13=RAY CHARLES - CONFESSION BLUES
TTITLE14=RAY CHARLES - ALONE IN THE CITY
TTITLE15=RAY CHARLES - CAN ANYONE ASK FOR MORE?
EXTD=4 CD Set "I Got A Woman" CD 3
EXTT0=
EXTT1=
EXTT2=
EXTT3=
EXTT4=
EXTT5=
EXTT6=
EXTT7=
EXTT8=
EXTT9=
EXTT10=
EXTT11=
EXTT12=
EXTT13=
EXTT14=
EXTT15=
PLAYORDER=
